<svg width="64" height="64" viewBox="0 0 64 64" fill="none" xmlns="http://www.w3.org/2000/svg">
  <!-- Trophy base -->
  <rect x="20" y="50" width="24" height="6" rx="2" fill="#FFD700" stroke="#FFA500" stroke-width="1"/>
  
  <!-- Trophy cup -->
  <path d="M24 20 L24 50 L40 50 L40 20 C40 16 38 14 36 12 L28 12 C26 14 24 16 24 20 Z" fill="#FFD700" stroke="#FFA500" stroke-width="2"/>
  
  <!-- Trophy handles -->
  <path d="M24 20 Q18 20 18 28 Q18 32 20 34" stroke="#FFA500" stroke-width="2" fill="none" stroke-linecap="round"/>
  <path d="M40 20 Q46 20 46 28 Q46 32 44 34" stroke="#FFA500" stroke-width="2" fill="none" stroke-linecap="round"/>
  
  <!-- Number "3" on trophy -->
  <text x="32" y="38" text-anchor="middle" font-family="serif" font-weight="bold" font-size="16" fill="#1A2238">3</text>
  
  <!-- Stars/sparkles -->
  <circle cx="16" cy="16" r="2" fill="#FFD700"/>
  <circle cx="48" cy="16" r="2" fill="#FFD700"/>
  <circle cx="32" cy="8" r="1.5" fill="#FFD700"/>
</svg>

